<?xml version="1.0" encoding="UTF-8" standalone="no"?>
<!-- Created with Inkscape (http://www.inkscape.org/) -->

<svg
   xmlns:dc="http://purl.org/dc/elements/1.1/"
   xmlns:cc="http://creativecommons.org/ns#"
   xmlns:rdf="http://www.w3.org/1999/02/22-rdf-syntax-ns#"
   xmlns:svg="http://www.w3.org/2000/svg"
   xmlns="http://www.w3.org/2000/svg"
   xmlns:sodipodi="http://sodipodi.sourceforge.net/DTD/sodipodi-0.dtd"
   xmlns:inkscape="http://www.inkscape.org/namespaces/inkscape"
   width="210mm"
   height="297mm"
   viewBox="0 0 210 297"
   version="1.1"
   id="svg8"
   inkscape:version="0.92.4 (5da689c313, 2019-01-14)"
   sodipodi:docname="komplex bild.svg">
  <defs
     id="defs2">
    <clipPath
       clipPathUnits="userSpaceOnUse"
       id="clipPath843">
      <rect
         style="opacity:0.25899999;fill:#ff9955;fill-opacity:0.99607843;stroke:none;stroke-width:1.50199997;stroke-linecap:round;stroke-linejoin:miter;stroke-miterlimit:4;stroke-dasharray:none;stroke-dashoffset:0;stroke-opacity:1"
         id="rect845"
         width="96.761909"
         height="257.77975"
         x="-486.07739"
         y="-53.761906"
         ry="48.380955" />
    </clipPath>
    <marker
       inkscape:isstock="true"
       style="overflow:visible"
       id="Arrow1Mstart"
       refX="0.0"
       refY="0.0"
       orient="auto"
       inkscape:stockid="Arrow1Mstart">
      <path
         transform="scale(0.4) translate(10,0)"
         style="fill-rule:evenodd;stroke:#000000;stroke-width:1.0pt"
         d="M 0.0,0.0 L 5.0,-5.0 L -12.5,0.0 L 5.0,5.0 L 0.0,0.0 z "
         id="path1088" />
    </marker>
    <marker
       inkscape:isstock="true"
       style="overflow:visible;"
       id="Arrow1Lend"
       refX="0.0"
       refY="0.0"
       orient="auto"
       inkscape:stockid="Arrow1Lend">
      <path
         transform="scale(0.8) rotate(180) translate(12.5,0)"
         style="fill-rule:evenodd;stroke:#000000;stroke-width:1.0pt;"
         d="M 0.0,0.0 L 5.0,-5.0 L -12.5,0.0 L 5.0,5.0 L 0.0,0.0 z "
         id="path1085" />
    </marker>
    <marker
       inkscape:isstock="true"
       style="overflow:visible"
       id="Arrow1Lstart"
       refX="0.0"
       refY="0.0"
       orient="auto"
       inkscape:stockid="Arrow1Lstart">
      <path
         transform="scale(0.8) translate(12.5,0)"
         style="fill-rule:evenodd;stroke:#000000;stroke-width:1.0pt"
         d="M 0.0,0.0 L 5.0,-5.0 L -12.5,0.0 L 5.0,5.0 L 0.0,0.0 z "
         id="path1082" />
    </marker>
    <marker
       inkscape:isstock="true"
       style="overflow:visible"
       id="Arrow1Mstart-0"
       refX="0.0"
       refY="0.0"
       orient="auto"
       inkscape:stockid="Arrow1Mstart">
      <path
         transform="scale(0.4) translate(10,0)"
         style="fill-rule:evenodd;stroke:#000000;stroke-width:1.0pt"
         d="M 0.0,0.0 L 5.0,-5.0 L -12.5,0.0 L 5.0,5.0 L 0.0,0.0 z "
         id="path1088-3" />
    </marker>
    <marker
       inkscape:isstock="true"
       style="overflow:visible;"
       id="Arrow1Lend-1"
       refX="0.0"
       refY="0.0"
       orient="auto"
       inkscape:stockid="Arrow1Lend">
      <path
         transform="scale(0.8) rotate(180) translate(12.5,0)"
         style="fill-rule:evenodd;stroke:#000000;stroke-width:1.0pt;"
         d="M 0.0,0.0 L 5.0,-5.0 L -12.5,0.0 L 5.0,5.0 L 0.0,0.0 z "
         id="path1085-6" />
    </marker>
    <marker
       inkscape:isstock="true"
       style="overflow:visible"
       id="Arrow1Lstart-4"
       refX="0.0"
       refY="0.0"
       orient="auto"
       inkscape:stockid="Arrow1Lstart">
      <path
         transform="scale(0.8) translate(12.5,0)"
         style="fill-rule:evenodd;stroke:#000000;stroke-width:1.0pt"
         d="M 0.0,0.0 L 5.0,-5.0 L -12.5,0.0 L 5.0,5.0 L 0.0,0.0 z "
         id="path1082-1" />
    </marker>
  </defs>
  <sodipodi:namedview
     id="base"
     pagecolor="#ffffff"
     bordercolor="#666666"
     borderopacity="1.0"
     inkscape:pageopacity="0.0"
     inkscape:pageshadow="2"
     inkscape:zoom="0.24748737"
     inkscape:cx="-308.21332"
     inkscape:cy="840.32015"
     inkscape:document-units="mm"
     inkscape:current-layer="layer1"
     showgrid="false"
     showborder="false"
     showguides="true"
     objecttolerance="1"
     guidetolerance="1"
     inkscape:window-width="1920"
     inkscape:window-height="1051"
     inkscape:window-x="-9"
     inkscape:window-y="-9"
     inkscape:window-maximized="1" />
  <metadata
     id="metadata5">
    <rdf:RDF>
      <cc:Work
         rdf:about="">
        <dc:format>image/svg+xml</dc:format>
        <dc:type
           rdf:resource="http://purl.org/dc/dcmitype/StillImage" />
        <dc:title></dc:title>
      </cc:Work>
    </rdf:RDF>
  </metadata>
  <g
     inkscape:label="Layer 1"
     inkscape:groupmode="layer"
     id="layer1">
    <path
       style="opacity:1;fill:#ffdd54;fill-opacity:0.99607843;stroke:none;stroke-width:1.92897069;stroke-linecap:round;stroke-linejoin:miter;stroke-miterlimit:4;stroke-dasharray:none;stroke-dashoffset:0;stroke-opacity:1"
       d="m -158.18828,163.92672 c -74.23927,0 -134.7253,58.38513 -140.57651,133.11481 H 3.1876239 C -2.6635895,222.31185 -63.149609,163.92672 -137.38888,163.92672 Z"
       id="rect817"
       inkscape:connector-curvature="0" />
    <rect
       ry="36.561333"
       y="85.840508"
       x="-178.69713"
       height="107.61036"
       width="59.549252"
       id="rect822"
       style="opacity:1;fill:#ffdd55;fill-opacity:0.99607843;stroke:none;stroke-width:0.52098894;stroke-linecap:round;stroke-linejoin:miter;stroke-miterlimit:4;stroke-dasharray:none;stroke-dashoffset:0;stroke-opacity:1" />
    <path
       style="opacity:0.259;fill:#000000;fill-opacity:0.99607843;stroke:none;stroke-width:4.45452547;stroke-linecap:round;stroke-linejoin:miter;stroke-miterlimit:4;stroke-dasharray:none;stroke-dashoffset:0;stroke-opacity:1"
       d="M -562.85742 324.4375 C -625.20127 324.4375 -675.39062 386.06684 -675.39062 462.62109 L -675.39062 534.96875 C -642.12631 562.56279 -603.77181 578.2832 -562.85742 578.2832 C -521.94303 578.2832 -483.58658 562.56279 -450.32227 534.96875 L -450.32227 462.62109 C -450.32227 386.06684 -500.51358 324.4375 -562.85742 324.4375 z "
       transform="scale(0.26458333)"
       id="rect824" />
    <rect
       style="opacity:1;fill:#ffdd55;fill-opacity:0.99607843;stroke:none;stroke-width:1.50199997;stroke-linecap:round;stroke-linejoin:miter;stroke-miterlimit:4;stroke-dasharray:none;stroke-dashoffset:0;stroke-opacity:1"
       id="rect815"
       width="190.24161"
       height="279.9675"
       x="-245.94623"
       y="-137.9214"
       ry="95.120804" />
    <g
       id="g859"
       transform="matrix(0.99677311,0,0,1,-0.86070084,11.339286)">
      <g
         transform="matrix(0.52606538,0,0,0.52606538,-39.322373,-38.457405)"
         clip-path="url(#clipPath843)"
         id="g841">
        <rect
           ry="41.186745"
           y="4.9536009"
           x="-432.27548"
           height="121.22427"
           width="82.373489"
           id="rect831"
           style="opacity:1;fill:#ffdd55;fill-opacity:0.99607843;stroke:none;stroke-width:0.65035707;stroke-linecap:round;stroke-linejoin:miter;stroke-miterlimit:4;stroke-dasharray:none;stroke-dashoffset:0;stroke-opacity:1" />
        <rect
           style="opacity:1;fill:#ff9955;fill-opacity:0.99607843;stroke:none;stroke-width:0.37150419;stroke-linecap:round;stroke-linejoin:miter;stroke-miterlimit:4;stroke-dasharray:none;stroke-dashoffset:0;stroke-opacity:1"
           id="rect833"
           width="48.591347"
           height="67.056641"
           x="-415.3844"
           y="34.290726"
           ry="22.78294" />
      </g>
      <g
         id="g851"
         clip-path="url(#clipPath843)"
         transform="matrix(-0.52606538,0,0,0.52606538,-259.86627,-38.457405)">
        <rect
           style="opacity:1;fill:#ffdd55;fill-opacity:0.99607843;stroke:none;stroke-width:0.65035707;stroke-linecap:round;stroke-linejoin:miter;stroke-miterlimit:4;stroke-dasharray:none;stroke-dashoffset:0;stroke-opacity:1"
           id="rect847"
           width="82.373489"
           height="121.22427"
           x="-432.27548"
           y="4.9536009"
           ry="41.186745" />
        <rect
           ry="22.78294"
           y="34.290726"
           x="-415.3844"
           height="67.056641"
           width="48.591347"
           id="rect849"
           style="opacity:1;fill:#ff9955;fill-opacity:0.99607843;stroke:none;stroke-width:0.37150419;stroke-linecap:round;stroke-linejoin:miter;stroke-miterlimit:4;stroke-dasharray:none;stroke-dashoffset:0;stroke-opacity:1" />
      </g>
    </g>
    <g
       id="g887"
       transform="matrix(0.7482658,0,0,0.7482658,-226.62297,-98.951026)">
      <path
         sodipodi:nodetypes="sssssssss"
         inkscape:connector-curvature="0"
         id="rect861"
         d="M -1.8057053,81.077871 H 70.384 c 12.021027,0 22.640664,7.928058 21.698604,17.708266 L 85.948577,162.4679 c -0.94207,9.78021 -9.67758,17.70826 -21.698614,17.70826 H 5.7888168 c -12.0210311,0 -20.5341548,-7.94402 -21.6986148,-17.70826 L -23.50432,98.786137 c -1.16446,-9.764244 9.677584,-17.708266 21.6986147,-17.708266 z"
         style="opacity:1;fill:#003380;fill-opacity:0.99607843;stroke:none;stroke-width:0.82737708;stroke-linecap:round;stroke-linejoin:miter;stroke-miterlimit:4;stroke-dasharray:none;stroke-dashoffset:0;stroke-opacity:1" />
      <path
         style="opacity:1;fill:#d5f6ff;fill-opacity:0.99607843;stroke:none;stroke-width:0.5868609;stroke-linecap:round;stroke-linejoin:miter;stroke-miterlimit:4;stroke-dasharray:none;stroke-dashoffset:0;stroke-opacity:1"
         d="M 8.6829363,95.106189 H 59.887303 c 8.526539,0 16.059082,5.623401 15.390883,12.560531 l -4.350885,45.16965 c -0.668222,6.93713 -6.86434,12.56052 -15.390895,12.56052 H 14.069752 c -8.5265479,0 -14.56493458,-5.63472 -15.3908924,-12.56052 L -6.7079547,107.66672 C -7.5339042,100.74091 0.15638943,95.106189 8.6829363,95.106189 Z"
         id="path864"
         inkscape:connector-curvature="0"
         sodipodi:nodetypes="sssssssss" />
      <path
         style="opacity:1;fill:#003380;fill-opacity:0.99607843;stroke:none;stroke-width:0.82737708;stroke-linecap:round;stroke-linejoin:miter;stroke-miterlimit:4;stroke-dasharray:none;stroke-dashoffset:0;stroke-opacity:1"
         d="m 133.50977,81.077871 h 72.1897 c 12.02103,0 22.64067,7.928058 21.69861,17.708266 l -6.13403,63.681763 c -0.94207,9.78021 -9.67758,17.70826 -21.69861,17.70826 h -58.46115 c -12.02103,0 -20.53415,-7.94402 -21.69861,-17.70826 l -7.59453,-63.681763 c -1.16446,-9.764244 9.67759,-17.708266 21.69862,-17.708266 z"
         id="path870"
         inkscape:connector-curvature="0"
         sodipodi:nodetypes="sssssssss" />
      <path
         sodipodi:nodetypes="sssssssss"
         inkscape:connector-curvature="0"
         id="path872"
         d="m 143.99841,95.106189 h 51.20437 c 8.52654,0 16.05908,5.623401 15.39088,12.560531 l -4.35088,45.16965 c -0.66823,6.93713 -6.86434,12.56052 -15.3909,12.56052 h -41.46665 c -8.52655,0 -14.56494,-5.63472 -15.3909,-12.56052 l -5.38681,-45.16965 c -0.82595,-6.92581 6.86434,-12.560531 15.39089,-12.560531 z"
         style="opacity:1;fill:#d5f6ff;fill-opacity:0.99607843;stroke:none;stroke-width:0.5868609;stroke-linecap:round;stroke-linejoin:miter;stroke-miterlimit:4;stroke-dasharray:none;stroke-dashoffset:0;stroke-opacity:1" />
      <rect
         ry="11.339285"
         y="97.428574"
         x="77.107147"
         height="22.67857"
         width="50.648808"
         id="rect874"
         style="opacity:1;fill:#003380;fill-opacity:0.99607843;stroke:none;stroke-width:1.05114889;stroke-linecap:round;stroke-linejoin:miter;stroke-miterlimit:4;stroke-dasharray:none;stroke-dashoffset:0;stroke-opacity:1" />
      <rect
         style="opacity:1;fill:#003380;fill-opacity:0.99607843;stroke:none;stroke-width:0.83224553;stroke-linecap:round;stroke-linejoin:miter;stroke-miterlimit:4;stroke-dasharray:none;stroke-dashoffset:0;stroke-opacity:1"
         id="rect876"
         width="31.749998"
         height="22.67857"
         x="210.91072"
         y="97.428574"
         ry="11.339285" />
      <rect
         ry="11.339285"
         y="97.428574"
         x="-40.065472"
         height="22.67857"
         width="32.505951"
         id="rect878"
         style="opacity:1;fill:#003380;fill-opacity:0.99607843;stroke:none;stroke-width:0.8420949;stroke-linecap:round;stroke-linejoin:miter;stroke-miterlimit:4;stroke-dasharray:none;stroke-dashoffset:0;stroke-opacity:1" />
    </g>
    <g
       id="g895"
       transform="translate(0,-3.7797619)">
      <path
         d="m -191.59125,15.029667 a 9.4494038,9.4494038 0 0 1 -9.49191,-9.3948339 9.4494038,9.4494038 0 0 1 9.38297,-9.5036449 9.4494038,9.4494038 0 0 1 9.51536,9.3710808 9.4494038,9.4494038 0 0 1 -9.35918,9.527067"
         sodipodi:open="true"
         sodipodi:end="1.5612825"
         sodipodi:start="1.5662812"
         sodipodi:ry="9.4494038"
         sodipodi:rx="9.4494038"
         sodipodi:cy="5.5803595"
         sodipodi:cx="-191.63391"
         sodipodi:type="arc"
         id="path889"
         style="opacity:1;fill:#000000;fill-opacity:0.99607843;stroke:none;stroke-width:0.93874997;stroke-linecap:round;stroke-linejoin:miter;stroke-miterlimit:4;stroke-dasharray:none;stroke-dashoffset:0;stroke-opacity:1" />
      <path
         style="opacity:1;fill:#000000;fill-opacity:0.99607843;stroke:none;stroke-width:0.93874997;stroke-linecap:round;stroke-linejoin:miter;stroke-miterlimit:4;stroke-dasharray:none;stroke-dashoffset:0;stroke-opacity:1"
         id="path891"
         sodipodi:type="arc"
         sodipodi:cx="-109.99105"
         sodipodi:cy="5.5803595"
         sodipodi:rx="9.4494038"
         sodipodi:ry="9.4494038"
         sodipodi:start="1.5662812"
         sodipodi:end="1.5612825"
         sodipodi:open="true"
         d="m -109.94839,15.029667 a 9.4494038,9.4494038 0 0 1 -9.49191,-9.3948339 9.4494038,9.4494038 0 0 1 9.38297,-9.5036449 9.4494038,9.4494038 0 0 1 9.51536,9.3710808 9.4494038,9.4494038 0 0 1 -9.35918,9.527067" />
    </g>
    <rect
       style="opacity:1;fill:#000000;fill-opacity:0.99607843;stroke:none;stroke-width:1.10590935;stroke-linecap:round;stroke-linejoin:miter;stroke-miterlimit:4;stroke-dasharray:none;stroke-dashoffset:0;stroke-opacity:1"
       id="rect897"
       width="52.916664"
       height="14.753531"
       x="-223.4384"
       y="-60.779037"
       ry="7.3767657" />
    <rect
       ry="7.3767657"
       y="-23.562864"
       x="-147.14272"
       height="14.753531"
       width="52.916664"
       id="rect901"
       style="opacity:1;fill:#000000;fill-opacity:0.99607843;stroke:none;stroke-width:1.10590935;stroke-linecap:round;stroke-linejoin:miter;stroke-miterlimit:4;stroke-dasharray:none;stroke-dashoffset:0;stroke-opacity:1"
       transform="rotate(21.585741)" />
    <path
       style="opacity:1;fill:#ff9955;fill-opacity:0.99607843;stroke:none;stroke-width:0.37344545;stroke-linecap:round;stroke-linejoin:miter;stroke-miterlimit:4;stroke-dasharray:none;stroke-dashoffset:0;stroke-opacity:1"
       d="m -181.19238,43.333079 c 0.0402,4.036516 2.65233,7.270961 5.89141,7.270961 h 48.9511 c 3.23908,0 5.85119,-3.234445 5.8914,-7.270961 z"
       id="rect903"
       inkscape:connector-curvature="0" />
    <g
       id="g2481"
       inkscape:label="Layer 1"
       transform="matrix(0.16456128,0,0,0.16344227,-603.71737,-484.31927)" />
    <g
       id="g4015"
       transform="matrix(1,0,0,1.0237501,396.11905,1.7805388)">
      <path
         inkscape:connector-curvature="0"
         id="rect912"
         d="m -590.46083,163.75108 c -36.11238,7.12038 -60.86967,22.04812 -60.86967,39.39243 v 199.3284 c 7.16975,-0.29712 14.50099,-0.45423 21.96455,-0.45423 h 195.74981 V 203.14351 c 0,-17.33917 -24.7427,-32.26333 -60.83763,-39.38623 a 48.092598,45.735115 0 0 1 0.0718,1.58854 48.092598,45.735115 0 0 1 -47.63379,46.11088 l -0.24029,0.002 a 48.092598,45.735115 0 0 1 -48.30868,-45.4706 48.092598,45.735115 0 0 1 0.10387,-2.23656 z"
         style="opacity:1;fill:#000000;fill-opacity:0.99607843;stroke:none;stroke-width:1.50199997;stroke-linecap:round;stroke-linejoin:miter;stroke-miterlimit:4;stroke-dasharray:none;stroke-dashoffset:0;stroke-opacity:1" />
      <g
         transform="matrix(0.08778902,0,0,0.08778902,-304.85158,-126.14232)"
         inkscape:label="Layer 1"
         id="layer1-0">
        <path
           style="opacity:1;fill:#ffb380;fill-opacity:0.99607843;stroke:#f3f3f3;stroke-width:0;stroke-linecap:round;stroke-linejoin:miter;stroke-miterlimit:4;stroke-dasharray:none;stroke-dashoffset:0;stroke-opacity:1"
           d="m -7046.2793,17050.965 c -249.263,-0.04 -487.628,102.362 -662.7538,279.74 -175.1258,177.378 -272.685,417.015 -271.2481,666.274 1.4369,249.259 101.7523,487.755 278.9113,663.102 177.159,175.348 416.6741,273.206 665.9344,272.081 l 4.7031,-0.03 c 249.2515,-2.372 487.37,-103.581 662.0516,-281.396 174.6816,-177.815 271.6412,-417.696 269.5812,-666.95 -2.0601,-249.254 -171.6874,-516.106 -219.2177,-401.665 -283.5003,682.597 -480.4939,-531.113 -727.962,-531.153 z m 4.2871,611.385 c 181.6555,-1.275 330.0123,144.832 331.5137,326.486 1.5019,181.654 -144.42,330.194 -326.0723,331.922 l -1.6445,0.01 c -181.6581,0.82 -329.6487,-145.658 -330.6953,-327.315 -1.0473,-181.656 145.2437,-329.83 326.8984,-331.105 z"
           transform="scale(0.26458333)"
           id="path817-5"
           inkscape:connector-curvature="0"
           sodipodi:nodetypes="ssssccsssscccccc" />
        <path
           style="color:#000000;font-style:normal;font-variant:normal;font-weight:normal;font-stretch:normal;font-size:medium;line-height:normal;font-family:sans-serif;font-variant-ligatures:normal;font-variant-position:normal;font-variant-caps:normal;font-variant-numeric:normal;font-variant-alternates:normal;font-feature-settings:normal;text-indent:0;text-align:start;text-decoration:none;text-decoration-line:none;text-decoration-style:solid;text-decoration-color:#000000;letter-spacing:normal;word-spacing:normal;text-transform:none;writing-mode:lr-tb;direction:ltr;text-orientation:mixed;dominant-baseline:auto;baseline-shift:baseline;text-anchor:start;white-space:normal;shape-padding:0;clip-rule:nonzero;display:inline;overflow:visible;visibility:visible;opacity:1;isolation:auto;mix-blend-mode:normal;color-interpolation:sRGB;color-interpolation-filters:linearRGB;solid-color:#000000;solid-opacity:1;vector-effect:none;fill:#6c5353;fill-opacity:1;fill-rule:nonzero;stroke:#3c2e2e;stroke-width:49.99999619;stroke-linecap:round;stroke-linejoin:round;stroke-miterlimit:4;stroke-dasharray:none;stroke-dashoffset:0;stroke-opacity:1;color-rendering:auto;image-rendering:auto;shape-rendering:auto;text-rendering:auto;enable-background:accumulate"
           d="m -7038.2344,16988.457 c -2.8358,-0.01 -5.6729,0 -8.5097,0 -0.034,0 -0.069,0 -0.1036,0 h 0.016 c -3.8449,0.04 -7.7993,0.07 -11.8555,0.141 h -0.1172 c -356.3165,2.38 -702.2833,209.637 -868.8183,525.529 -86.671,159.33 -127.3412,342.137 -119.795,522.822 0.1323,49.353 7.837,102.286 27.2774,145.86 19.4921,43.69 55.3791,80.808 105.6933,80.808 56.1801,0 96.5147,-28.39 118.8555,-66.244 22.3412,-37.854 30.9196,-83.466 38.5996,-127.07 7.68,-43.606 14.4575,-85.549 26.5527,-112.93 6.0477,-13.69 13.0349,-23.345 20.9141,-29.424 7.8792,-6.079 16.9057,-9.635 31.918,-9.635 25.8572,0 40.8492,11.79 56.8926,36.461 16.0437,24.672 29.0611,61.376 41.789,99.514 12.7276,38.138 25.1654,77.64 44.8008,110.219 19.6354,32.578 50.983,59.927 93.1152,59.928 33.8155,0 60.5102,-5.629 81.5176,-17.696 21.0081,-12.066 34.8771,-30.888 42.1152,-50.599 14.4756,-39.425 8.6981,-82.021 8.629,-119.686 0,-0.547 -0.023,-1.093 -0.061,-1.639 -3.3101,-48.918 8.1298,-110.648 34.1484,-164.402 26.0187,-53.754 65.9331,-99.055 118.0079,-120.728 0.2399,-0.103 0.4782,-0.209 0.7148,-0.319 35.7929,-16.236 75.3653,-24.461 113.918,-24.271 0.1699,0 0.3398,0 0.5097,0 147.0501,-2.256 280.6663,145.607 261.4512,291.857 -0.039,0.305 -0.073,0.61 -0.1016,0.916 -0.1171,1.227 -0.242,2.447 -0.3789,3.662 -0.136,1.224 -0.2798,2.436 -0.4355,3.639 v 0.04 c -0.155,1.221 -0.3325,2.46 -0.5078,3.713 -0.1814,1.259 -0.3627,2.492 -0.5547,3.691 -0.1465,0.935 -0.2397,1.877 -0.2793,2.823 -2.6253,60.562 -0.14,129.612 15.6055,186.767 7.8731,28.578 18.9926,54.497 36.5761,74.793 17.5832,20.295 43.3481,34.188 72.6602,34.188 31.4865,0 59.2142,-10.327 80.3887,-27.942 21.1744,-17.614 35.8968,-41.458 46.8828,-68.084 21.9719,-53.252 30.0712,-119.182 36.9023,-183.867 6.8308,-64.685 12.2599,-128.301 24.5078,-172.205 6.1244,-21.952 14.0515,-38.538 22.1817,-47.856 8.1297,-9.317 14.6593,-12.743 27.7422,-12.455 13.0015,0.288 19.6297,4.095 27.6816,14.092 8.0523,9.997 15.6239,27.326 21.2891,49.91 11.3299,45.168 15.4966,109.741 21.6074,175.215 6.1103,65.474 13.9585,132.07 37.1758,185.893 23.2172,53.823 68.1436,96.029 134.5937,96.029 26.143,0 48.1129,-15.255 64.2598,-34.99 16.1465,-19.735 28.4832,-45.051 38.5625,-73.811 20.1165,-57.4 30.7152,-128.78 29.9219,-194.508 8.1705,-184.06 -35.8459,-369.648 -124.3692,-530.835 -46.4178,30.266 -93.0674,20.527 -134.1128,-2.763 -39.6666,-22.602 -62.893,-67.971 -62.0332,-121.172 -93.2702,94.221 -226.6163,135.489 -321.52,81.718 -96.6758,-55.059 -137.4205,-181.597 -100.4082,-311.832 -45.8879,28.939 -97.7584,32.61 -138.0781,9.771 -52.9929,-30.139 -75.1484,-99.647 -54.4903,-170.951 -19.7709,-1.305 -39.5944,-2.011 -59.4453,-2.084 z"
           id="path876-9"
           transform="scale(0.26458333)"
           inkscape:connector-curvature="0"
           sodipodi:nodetypes="cccccccccscccsscccccccccccccccccccccccsccccccccccscsccccccccc" />
        <path
           style="opacity:0.51000001;fill:#ffffff;fill-opacity:0.99607843;stroke:#f3f3f3;stroke-width:0;stroke-linecap:round;stroke-linejoin:miter;stroke-miterlimit:4;stroke-dasharray:none;stroke-dashoffset:0;stroke-opacity:1"
           d="m -1698.6699,4721.0996 c -7.4123,4.903 -6.8011,15.3116 -9.0367,22.8916 -5.2788,31.3796 -2.9591,65.5346 -19.559,93.919 -5.7933,8.7396 -14.746,15.7381 -25.1641,17.8027 -34.1335,40.4959 -91.6454,60.7485 -143.3051,47.1331 -51.4716,-12.4274 -94.934,-53.845 -109.017,-104.9961 -7.492,-16.4681 -8.9448,-36.5959 -22.4962,-49.6585 -6.6013,-3.3702 -12.8215,3.1907 -13.4493,9.4981 -3.8857,12.8026 -5.4518,26.3594 -7.7864,39.3739 11.7122,60.9219 54.8823,115.689 113.1575,138.46 60.8872,25.2205 135.0692,17.2005 187.1875,-23.7109 31.9886,-24.2797 55.5864,-58.9176 67.375,-97.1934 -7.9313,-29.7031 -3.5049,-61.8145 -14.2695,-90.6562 -0.7391,-1.223 -1.9245,-3.3953 -3.6367,-2.8633 z"
           id="path879-3"
           inkscape:connector-curvature="0" />
        <path
           inkscape:connector-curvature="0"
           style="opacity:0.51000001;fill:#ffffff;fill-opacity:0.99607843;stroke:#f3f3f3;stroke-width:0;stroke-linecap:round;stroke-linejoin:miter;stroke-miterlimit:4;stroke-dasharray:none;stroke-dashoffset:0;stroke-opacity:1"
           d="m -7051.9336,17273.865 c -331.3024,0.356 -646.981,263.654 -696.9785,593.985 0.5541,6.139 -9.6789,33.39 1.0644,20.875 45.8892,-41.461 121.4707,-29.132 160.1954,16.048 34.7576,-210.99 197.8489,-400.31 408.8085,-448.677 157.1528,-42.345 333.2814,-10.036 462.0586,90.595 95.8224,71.491 169.8514,172.715 205.8555,286.957 14.2817,-40.564 53.5773,-74.901 98.5469,-69.351 23.2343,1.784 45.3171,13.191 60.9746,30.324 -29.7593,-102.981 -83.5245,-198.621 -154.5,-278.867 a 253.10106,344.10431 30 0 1 -211.1856,1.98 253.10106,344.10431 30 0 1 -107.371,-210.562 c -16.8774,-5.205 -34.0002,-9.735 -51.3379,-13.545 -57.8196,-13.62 -117.1185,-20.207 -176.1309,-19.762 z"
           id="path937-9"
           transform="scale(0.26458333)" />
        <path
           style="opacity:1;fill:#ffb380;fill-opacity:0;stroke:none;stroke-width:50;stroke-linecap:round;stroke-linejoin:round;stroke-miterlimit:4;stroke-dasharray:none;stroke-dashoffset:0;stroke-opacity:1"
           id="path1039-7"
           sodipodi:type="arc"
           sodipodi:cx="-2155.5032"
           sodipodi:cy="4414.5723"
           sodipodi:rx="60.194473"
           sodipodi:ry="81.161087"
           sodipodi:start="1.5662812"
           sodipodi:end="1.5612825"
           sodipodi:open="true"
           d="m -2155.2314,4495.7325 a 60.194473,81.161087 0 0 1 -60.4652,-80.6924 60.194473,81.161087 0 0 1 59.7712,-81.6269 60.194473,81.161087 0 0 1 60.6146,80.4883 60.194473,81.161087 0 0 1 -59.6197,81.8282" />
        <path
           style="opacity:1;fill:#ffb380;fill-opacity:0.99607843;stroke:none;stroke-width:300.3125;stroke-linecap:round;stroke-linejoin:round;stroke-miterlimit:4;stroke-dasharray:none;stroke-dashoffset:0;stroke-opacity:1"
           d="m -6761.7744,17102.448 c -74.8854,186.373 -19.2489,282.587 86.0459,342.503 l 1.2578,0.705 c 99.987,55.407 233.0731,39.77 340.0683,-113.215 -123.4811,87.236 -208.764,91.992 -297.6581,43.666 l -1.4571,-0.804 c -95.811,-53.7 -112.4455,-93.354 -128.2568,-272.855 z"
           id="path1043-2"
           inkscape:connector-curvature="0"
           sodipodi:nodetypes="ccccccc"
           transform="scale(0.26458333)" />
        <path
           style="opacity:1;fill:#ffb380;fill-opacity:0.99607843;stroke:none;stroke-width:130.90060425;stroke-linecap:round;stroke-linejoin:round;stroke-miterlimit:4;stroke-dasharray:none;stroke-dashoffset:0;stroke-opacity:1"
           d="m -6334.4024,17332.441 c -37.1602,86.658 -9.6185,140.105 36.2774,166.221 l 0.5488,0.307 c 37.0213,20.515 58.7352,25.114 99.9589,-4.909 l -8.1913,-12.093 c -26.7584,7.417 -43.8244,2.699 -73.2812,-13.315 l -0.6348,-0.351 c -41.7619,-23.407 -60.7847,-59.54 -54.6778,-135.86 z m 157.4903,138.87 c -0.01,0 -0.018,0 -0.027,0.01 v 0 c 0.01,0 0.015,-0.01 0.023,-0.02 z"
           transform="scale(0.26458333)"
           id="path1048-9"
           inkscape:connector-curvature="0"
           sodipodi:nodetypes="ccccccccccccc" />
        <path
           style="opacity:1;fill:#ffb380;fill-opacity:0.99607843;stroke:none;stroke-width:39.8196106;stroke-linecap:round;stroke-linejoin:round;stroke-miterlimit:4;stroke-dasharray:none;stroke-dashoffset:0;stroke-opacity:1"
           d="m -1842.2335,4508.7333 c -0.2448,24.5924 18.7701,28.8111 12.167,25.517 l 1.8407,1.1691 c 13.2577,7.3466 24.9861,9.8881 39.173,-10.3968 -16.3728,11.567 -23.4368,6.5067 -35.2236,0.099 l -0.1932,-0.1065 c -10.0736,-8.6746 -4.0185,-2.8091 -14.6553,-15.3255 z"
           id="path1050-2"
           inkscape:connector-curvature="0"
           sodipodi:nodetypes="cccccccc" />
        <path
           style="opacity:1;fill:#ffb380;fill-opacity:0.99607843;stroke:none;stroke-width:12.15471554;stroke-linecap:round;stroke-linejoin:round;stroke-miterlimit:4;stroke-dasharray:none;stroke-dashoffset:0;stroke-opacity:1"
           d="m -1675.9773,4585.875 -10.8176,10.928 v 0 c 2.9662,-2.1641 8.1352,-5.6499 8.0948,-6.01 -0.3124,2.3084 -1.1751,7.8724 -0.7549,9.9555 l 0.9789,2.0514 z"
           id="path1058-3"
           inkscape:connector-curvature="0"
           sodipodi:nodetypes="ccccccc" />
        <path
           style="opacity:1;fill:#ffb380;fill-opacity:0.99607843;stroke:none;stroke-width:59.6893959;stroke-linecap:round;stroke-linejoin:round;stroke-miterlimit:4;stroke-dasharray:none;stroke-dashoffset:0;stroke-opacity:1"
           d="m -1678.6707,4590.8961 -3.0583,2.1768 2.7291,1.6031 z"
           id="path1066-3"
           inkscape:connector-curvature="0"
           sodipodi:nodetypes="cccc" />
        <path
           style="opacity:1;fill:#ffb380;fill-opacity:0.99607843;stroke:none;stroke-width:790.0993042;stroke-linecap:round;stroke-linejoin:round;stroke-miterlimit:4;stroke-dasharray:none;stroke-dashoffset:0;stroke-opacity:1"
           d="m -1789.1238,4525.088 -5.4249,6.7468 2.9719,1.1363 z"
           id="path1071-3"
           inkscape:connector-curvature="0"
           sodipodi:nodetypes="cccc" />
        <rect
           style="opacity:1;fill:#ff00ff;fill-opacity:0.99607843;stroke:none;stroke-width:38.87664413;stroke-linecap:round;stroke-linejoin:round;stroke-miterlimit:4;stroke-dasharray:none;stroke-dashoffset:0;stroke-opacity:1"
           id="rect1378-7"
           width="44.59029"
           height="12.850506"
           x="85.992676"
           y="5161.0737"
           rx="8.4360008"
           ry="6.4252529"
           transform="rotate(24.91728)" />
        <rect
           ry="7.3767371"
           rx="9.9316473"
           y="5947.332"
           x="2844.3977"
           height="14.753474"
           width="52.495853"
           id="rect1380-1"
           style="opacity:1;fill:#ff00ff;fill-opacity:0.99607843;stroke:none;stroke-width:45.19788742;stroke-linecap:round;stroke-linejoin:round;stroke-miterlimit:4;stroke-dasharray:none;stroke-dashoffset:0;stroke-opacity:1"
           transform="matrix(0.9587843,0.28413493,-0.76054927,0.64928022,0,0)" />
        <rect
           style="opacity:1;fill:#ff00ff;fill-opacity:0.99607843;stroke:none;stroke-width:36.19078445;stroke-linecap:round;stroke-linejoin:round;stroke-miterlimit:4;stroke-dasharray:none;stroke-dashoffset:0;stroke-opacity:1"
           id="rect1382-6"
           width="48.320892"
           height="10.276472"
           x="583.66998"
           y="5188.2402"
           rx="9.1417904"
           ry="5.138236"
           transform="matrix(0.96147056,0.27490793,-0.48955075,0.87197481,0,0)" />
        <rect
           ry="7.6615868"
           rx="14.260595"
           y="4457.002"
           x="-4995.8838"
           height="15.323174"
           width="75.377434"
           id="rect1384-6"
           style="opacity:1;fill:#00ffff;fill-opacity:0.99607843;stroke:none;stroke-width:55.19548035;stroke-linecap:round;stroke-linejoin:round;stroke-miterlimit:4;stroke-dasharray:none;stroke-dashoffset:0;stroke-opacity:1"
           transform="matrix(0.97124793,-0.23807027,0.65293034,0.75741796,0,0)" />
        <rect
           style="opacity:1;fill:#ff00ff;fill-opacity:0.99607843;stroke:none;stroke-width:36.94081116;stroke-linecap:round;stroke-linejoin:round;stroke-miterlimit:4;stroke-dasharray:none;stroke-dashoffset:0;stroke-opacity:1"
           id="rect1386-1"
           width="58.841789"
           height="8.7924519"
           x="487.16464"
           y="4946.3389"
           rx="11.132231"
           ry="4.3962259"
           transform="rotate(28.062343)" />
        <rect
           ry="3.7826762"
           rx="9.5405178"
           y="4987.6479"
           x="502.18521"
           height="7.5653524"
           width="50.428452"
           id="rect1388-2"
           style="opacity:1;fill:#00ffff;fill-opacity:0.99607843;stroke:none;stroke-width:31.72202492;stroke-linecap:round;stroke-linejoin:round;stroke-miterlimit:4;stroke-dasharray:none;stroke-dashoffset:0;stroke-opacity:1"
           transform="matrix(0.88056144,0.473932,-0.49378437,0.86958438,0,0)" />
        <rect
           style="opacity:1;fill:#ff00ff;fill-opacity:0.99607843;stroke:none;stroke-width:39.08979416;stroke-linecap:round;stroke-linejoin:round;stroke-miterlimit:4;stroke-dasharray:none;stroke-dashoffset:0;stroke-opacity:1"
           id="rect1390-3"
           width="54.665043"
           height="10.597419"
           x="-3993.7358"
           y="3488.9021"
           rx="10.342035"
           ry="5.2987094"
           transform="matrix(0.92007759,-0.39173617,0.46092507,0.88743906,0,0)" />
        <rect
           transform="rotate(28.062343)"
           ry="4.3962259"
           rx="11.132231"
           y="4946.3389"
           x="487.16464"
           height="8.7924519"
           width="58.841789"
           id="rect1392-2"
           style="opacity:1;fill:#ff00ff;fill-opacity:0.99607843;stroke:none;stroke-width:36.94081116;stroke-linecap:round;stroke-linejoin:round;stroke-miterlimit:4;stroke-dasharray:none;stroke-dashoffset:0;stroke-opacity:1" />
        <rect
           style="opacity:1;fill:#ff00ff;fill-opacity:0.99607843;stroke:none;stroke-width:36.94081116;stroke-linecap:round;stroke-linejoin:round;stroke-miterlimit:4;stroke-dasharray:none;stroke-dashoffset:0;stroke-opacity:1"
           id="rect1394-9"
           width="58.841789"
           height="8.7924519"
           x="487.16464"
           y="4946.3389"
           rx="11.132231"
           ry="4.3962259"
           transform="rotate(28.062343)" />
        <rect
           transform="rotate(-16.867555)"
           ry="4.3962259"
           rx="11.132231"
           y="3986.8191"
           x="-2983.4775"
           height="8.7924519"
           width="58.841789"
           id="rect1396-6"
           style="opacity:1;fill:#00ff00;fill-opacity:0.99607843;stroke:none;stroke-width:36.94081116;stroke-linecap:round;stroke-linejoin:round;stroke-miterlimit:4;stroke-dasharray:none;stroke-dashoffset:0;stroke-opacity:1" />
        <rect
           style="opacity:1;fill:#00ff00;fill-opacity:0.99607843;stroke:none;stroke-width:32.79703522;stroke-linecap:round;stroke-linejoin:round;stroke-miterlimit:4;stroke-dasharray:none;stroke-dashoffset:0;stroke-opacity:1"
           id="rect1398-1"
           width="52.963013"
           height="7.6998014"
           x="578.59521"
           y="5012.1592"
           rx="10.02003"
           ry="3.8499007"
           transform="matrix(0.89174231,0.45254353,-0.48861882,0.87249736,0,0)" />
        <rect
           transform="matrix(0.9808192,-0.19491974,0.72844449,0.68510482,0,0)"
           style="opacity:1;fill:#00ffff;fill-opacity:0.99607843;stroke:none;stroke-width:34.17674255;stroke-linecap:round;stroke-linejoin:round;stroke-miterlimit:4;stroke-dasharray:none;stroke-dashoffset:0;stroke-opacity:1"
           id="rect1400-2"
           width="49.057327"
           height="9.0269394"
           x="-5912.4287"
           y="5157.3638"
           rx="9.2811165"
           ry="4.5134697" />
        <rect
           style="opacity:1;fill:#00ff00;fill-opacity:0.99607843;stroke:none;stroke-width:36.94081116;stroke-linecap:round;stroke-linejoin:round;stroke-miterlimit:4;stroke-dasharray:none;stroke-dashoffset:0;stroke-opacity:1"
           id="rect1402-4"
           width="58.841789"
           height="8.7924519"
           x="-3122.1614"
           y="3916.7837"
           rx="11.132231"
           ry="4.3962259"
           transform="rotate(-16.867555)" />
        <text
           transform="scale(0.49892608,2.0043049)"
           id="text3979"
           y="2453.9138"
           x="-6356.3057"
           style="font-style:normal;font-weight:normal;font-size:228.62550354px;line-height:1.25;font-family:sans-serif;letter-spacing:0px;word-spacing:0px;fill:#ff0000;fill-opacity:1;stroke:none;stroke-width:5.71563816"
           xml:space="preserve"><tspan
             style="fill:#ff0000;stroke-width:5.71563816"
             y="2453.9138"
             x="-6356.3057"
             id="tspan3977"
             sodipodi:role="line">DONUT FOR LIFE</tspan></text>
      </g>
      <g
         transform="matrix(0.09181848,0,0,0.09181848,-439.87235,-145.78242)"
         inkscape:label="Layer 1"
         id="layer1-9">
        <path
           inkscape:connector-curvature="0"
           style="opacity:1;fill:#ffb380;fill-opacity:0.99607843;stroke:#f3f3f3;stroke-width:0;stroke-linecap:round;stroke-linejoin:miter;stroke-miterlimit:4;stroke-dasharray:none;stroke-dashoffset:0;stroke-opacity:1"
           d="m -7046.2793,17050.965 a 940.61498,940.61498 0 0 0 -934.0019,946.014 940.61498,940.61498 0 0 0 944.8457,935.183 l 4.7031,-0.03 a 940.61498,940.61498 0 0 0 931.6328,-948.346 940.61498,940.61498 0 0 0 -947.1797,-932.818 z m 4.2871,611.385 a 329.21501,329.21504 0 0 1 331.5137,326.486 329.21501,329.21504 0 0 1 -326.0723,331.922 l -1.6445,0.01 a 329.21501,329.21504 0 0 1 -330.6953,-327.315 329.21501,329.21504 0 0 1 326.8984,-331.105 z"
           transform="scale(0.26458333)"
           id="path817-4" />
        <path
           sodipodi:nodetypes="ccccsssccccssscssscccc"
           inkscape:connector-curvature="0"
           id="path859"
           d="m -1863.8816,4501.4776 c -1.0523,0.01 -2.1048,0.018 -3.1574,0.038 -91.7473,0.6011 -181.2639,54.2401 -224.1134,135.545 -22.3744,41.1096 -32.8996,88.4025 -30.9211,135.1004 0.047,24.7401 8.1532,53.4758 28.5721,53.4758 51.6583,0 21.1762,-91.3604 62.6634,-91.3604 37.0149,0 28.4756,80.9947 62.5994,80.9947 32.794,0 28.4182,-22.2623 28.3798,-43.1101 -1.9345,-28.5888 12.9759,-68.9509 44.3141,-81.9951 10.3687,-4.7033 21.7489,-7.0681 32.906,-7.0133 43.275,-0.6636 81.4943,41.6306 75.8362,84.6949 -0.034,0.3612 -0.071,0.7219 -0.1112,1.0823 -0.04,0.3603 -0.083,0.7202 -0.1294,1.0797 -0.046,0.3594 -0.095,0.7185 -0.1462,1.0771 -0.052,0.3586 -0.1056,0.7167 -0.1621,1.0744 -1.3523,31.1971 2.9421,71.3493 26.4235,71.3493 55.874,0 21.3279,-136.5002 63.2781,-135.5721 41.9833,0.929 3.6599,137.8837 63.9731,137.8837 17.4657,0 28.9342,-40.409 28.5086,-73.6609 3.3328,-73.3046 -25.5465,-147.7851 -79.0877,-198.2938 -47.709,-45.9145 -113.328,-72.7546 -179.6258,-72.3895 z"
           style="opacity:1;fill:#000000;fill-opacity:0.99607843;stroke:#110e0e;stroke-width:6.61458349;stroke-linecap:round;stroke-linejoin:miter;stroke-miterlimit:4;stroke-dasharray:none;stroke-dashoffset:0;stroke-opacity:1" />
        <path
           style="color:#000000;font-style:normal;font-variant:normal;font-weight:normal;font-stretch:normal;font-size:medium;line-height:normal;font-family:sans-serif;font-variant-ligatures:normal;font-variant-position:normal;font-variant-caps:normal;font-variant-numeric:normal;font-variant-alternates:normal;font-feature-settings:normal;text-indent:0;text-align:start;text-decoration:none;text-decoration-line:none;text-decoration-style:solid;text-decoration-color:#000000;letter-spacing:normal;word-spacing:normal;text-transform:none;writing-mode:lr-tb;direction:ltr;text-orientation:mixed;dominant-baseline:auto;baseline-shift:baseline;text-anchor:start;white-space:normal;shape-padding:0;clip-rule:nonzero;display:inline;overflow:visible;visibility:visible;opacity:1;isolation:auto;mix-blend-mode:normal;color-interpolation:sRGB;color-interpolation-filters:linearRGB;solid-color:#000000;solid-opacity:1;vector-effect:none;fill:#ff00ff;fill-opacity:1;fill-rule:nonzero;stroke:#3c2e2e;stroke-width:13.22916603;stroke-linecap:round;stroke-linejoin:round;stroke-miterlimit:4;stroke-dasharray:none;stroke-dashoffset:0;stroke-opacity:1;color-rendering:auto;image-rendering:auto;shape-rendering:auto;text-rendering:auto;enable-background:accumulate"
           d="m -1864.4743,4494.8631 c -1.0173,0.01 -2.0635,0.017 -3.1367,0.037 -0.01,0 -0.021,0 -0.031,0 -94.2754,0.6297 -185.8124,55.4669 -229.8748,139.0467 -22.9317,42.1561 -33.6924,90.5237 -31.6958,138.33 0.035,13.058 2.0736,27.0629 7.2172,38.5918 5.1573,11.5597 14.6524,21.3808 27.9647,21.3808 14.8643,0 25.5362,-7.5116 31.4472,-17.5271 5.9111,-10.0155 8.1808,-22.084 10.2128,-33.6211 2.032,-11.5374 3.8252,-22.6343 7.0254,-29.8789 1.6001,-3.6221 3.4488,-6.1767 5.5335,-7.7851 2.0847,-1.6084 4.473,-2.5493 8.445,-2.5493 6.8414,0 10.808,3.1195 15.0528,9.647 4.2449,6.5276 7.6891,16.2391 11.0567,26.3298 3.3675,10.0906 6.6583,20.5422 11.8535,29.1621 5.1952,8.6196 13.4892,15.8557 24.6367,15.8557 8.947,0 16.01,-1.4891 21.5682,-4.6818 5.5584,-3.1925 9.2279,-8.173 11.143,-13.3882 3.83,-10.431 2.3014,-21.7009 2.2831,-31.6664 a 6.615245,6.615245 0 0 0 -0.016,-0.4337 c -0.8758,-12.9429 2.151,-29.2756 9.0351,-43.498 6.8841,-14.2224 17.4448,-26.2083 31.2229,-31.9431 a 6.615245,6.615245 0 0 0 0.1891,-0.084 c 9.4702,-4.2958 19.9404,-6.472 30.1408,-6.4217 a 6.615245,6.615245 0 0 0 0.1349,0 c 38.907,-0.5967 74.2596,38.5251 69.1756,77.2205 a 6.615245,6.615245 0 0 0 -0.027,0.2423 c -0.031,0.3247 -0.064,0.6474 -0.1002,0.9689 -0.036,0.3239 -0.074,0.6445 -0.1152,0.9628 a 6.615245,6.615245 0 0 0 0,0.01 c -0.041,0.3231 -0.088,0.6509 -0.1344,0.9824 -0.048,0.3331 -0.096,0.6594 -0.1468,0.9766 a 6.615245,6.615245 0 0 0 -0.074,0.7464 c -0.6946,16.0237 -0.037,34.2937 4.129,49.4159 2.0831,7.5613 5.0251,14.419 9.6774,19.789 4.6522,5.3697 11.4692,9.0451 19.2247,9.0451 8.3308,0 15.6671,-2.7318 21.2695,-7.3925 5.6024,-4.6604 9.4977,-10.9691 12.4044,-18.0139 5.8134,-14.0896 7.9564,-31.5335 9.7638,-48.6481 1.8073,-17.1146 3.2437,-33.9463 6.4843,-45.5626 1.6204,-5.8081 3.7178,-10.197 5.8689,-12.6622 2.151,-2.4653 3.8786,-3.3715 7.3401,-3.2951 3.44,0.076 5.1937,1.0835 7.3241,3.7285 2.1305,2.6451 4.1339,7.23 5.6328,13.2054 2.9977,11.9507 4.1001,29.0356 5.7169,46.359 1.6167,17.3233 3.6932,34.9429 9.8361,49.1836 6.1429,14.2407 18.0297,25.4082 35.6113,25.4082 6.917,0 12.7298,-4.0362 17.002,-9.2578 4.2721,-5.2215 7.5362,-11.9197 10.203,-19.5291 5.3225,-15.1871 8.1268,-34.0731 7.9169,-51.4636 3.335,-75.1284 -26.1792,-151.2263 -81.1201,-203.083 l -0.024,-0.021 c -48.9624,-47.1093 -116.1281,-74.5916 -184.2244,-74.2167 a 6.615245,6.615245 0 0 0 -0.027,0 z"
           id="path876-90"
           inkscape:connector-curvature="0" />
        <path
           style="opacity:0.51000001;fill:#ffffff;fill-opacity:0.99607843;stroke:#f3f3f3;stroke-width:0;stroke-linecap:round;stroke-linejoin:miter;stroke-miterlimit:4;stroke-dasharray:none;stroke-dashoffset:0;stroke-opacity:1"
           d="m -1698.6699,4721.0996 c -7.4123,4.903 -6.8011,15.3116 -9.0367,22.8916 -5.2788,31.3796 -2.9591,65.5346 -19.559,93.919 -5.7933,8.7396 -14.746,15.7381 -25.1641,17.8027 -34.1335,40.4959 -91.6454,60.7485 -143.3051,47.1331 -51.4716,-12.4274 -94.934,-53.845 -109.017,-104.9961 -7.492,-16.4681 -8.9448,-36.5959 -22.4962,-49.6585 -6.6013,-3.3702 -12.8215,3.1907 -13.4493,9.4981 -3.8857,12.8026 -5.4518,26.3594 -7.7864,39.3739 11.7122,60.9219 54.8823,115.689 113.1575,138.46 60.8872,25.2205 135.0692,17.2005 187.1875,-23.7109 31.9886,-24.2797 55.5864,-58.9176 67.375,-97.1934 -7.9313,-29.7031 -3.5049,-61.8145 -14.2695,-90.6562 -0.7391,-1.223 -1.9245,-3.3953 -3.6367,-2.8633 z"
           id="path879-7"
           inkscape:connector-curvature="0" />
        <path
           style="opacity:0.51000001;fill:#ffffff;fill-opacity:0.99607843;stroke:#f3f3f3;stroke-width:0;stroke-linecap:round;stroke-linejoin:miter;stroke-miterlimit:4;stroke-dasharray:none;stroke-dashoffset:0;stroke-opacity:1"
           d="m -1865.8242,4570.377 c -87.6571,0.094 -171.1805,69.7583 -184.409,157.1582 0.1466,1.6243 -2.5605,8.8347 0.282,5.5234 12.1415,-10.9697 32.1389,-7.708 42.3848,4.2461 9.1963,-55.8246 52.3477,-105.9158 108.1641,-118.7129 41.58,-11.2036 88.1808,-2.655 122.2531,23.9704 25.353,18.9151 44.9395,45.6975 54.4656,75.9241 3.7787,-10.7328 14.176,-19.818 26.0742,-18.3496 6.1474,0.472 11.9901,3.4903 16.1328,8.0235 -18.6294,-64.4664 -72.8114,-118.0636 -138.7461,-132.5547 -15.2981,-3.6037 -30.9878,-5.3464 -46.6015,-5.2285 z"
           id="path937-80"
           inkscape:connector-curvature="0" />
      </g>
    </g>
  </g>
</svg>
