<?xml version="1.0" encoding="UTF-8" standalone="no"?>
<!-- Created with Inkscape (http://www.inkscape.org/) -->

<svg
   xmlns:dc="http://purl.org/dc/elements/1.1/"
   xmlns:cc="http://creativecommons.org/ns#"
   xmlns:rdf="http://www.w3.org/1999/02/22-rdf-syntax-ns#"
   xmlns:svg="http://www.w3.org/2000/svg"
   xmlns="http://www.w3.org/2000/svg"
   xmlns:sodipodi="http://sodipodi.sourceforge.net/DTD/sodipodi-0.dtd"
   xmlns:inkscape="http://www.inkscape.org/namespaces/inkscape"
   width="210mm"
   height="297mm"
   viewBox="0 0 210 297"
   version="1.1"
   id="svg8"
   inkscape:version="0.92.4 (5da689c313, 2019-01-14)"
   sodipodi:docname="logo.svg">
  <defs
     id="defs2" />
  <sodipodi:namedview
     id="base"
     pagecolor="#ffffff"
     bordercolor="#666666"
     borderopacity="1.0"
     inkscape:pageopacity="0.0"
     inkscape:pageshadow="2"
     inkscape:zoom="0.35"
     inkscape:cx="-81.428571"
     inkscape:cy="560"
     inkscape:document-units="mm"
     inkscape:current-layer="layer1"
     showgrid="false"
     showborder="false"
     inkscape:window-width="1920"
     inkscape:window-height="1051"
     inkscape:window-x="-9"
     inkscape:window-y="-9"
     inkscape:window-maximized="1" />
  <metadata
     id="metadata5">
    <rdf:RDF>
      <cc:Work
         rdf:about="">
        <dc:format>image/svg+xml</dc:format>
        <dc:type
           rdf:resource="http://purl.org/dc/dcmitype/StillImage" />
        <dc:title></dc:title>
      </cc:Work>
    </rdf:RDF>
  </metadata>
  <g
     inkscape:label="Layer 1"
     inkscape:groupmode="layer"
     id="layer1">
    <g
       id="g1021">
      <path
         d="M -111.31436,272.80824 A 125.48809,125.48809 0 0 1 -237.36696,148.04484 125.48809,125.48809 0 0 1 -112.76118,21.836423 125.48809,125.48809 0 0 1 13.602854,146.28439 125.48809,125.48809 0 0 1 -110.6871,272.80384"
         sodipodi:open="true"
         sodipodi:end="1.5612825"
         sodipodi:start="1.5662812"
         sodipodi:ry="125.48809"
         sodipodi:rx="125.48809"
         sodipodi:cy="147.32143"
         sodipodi:cx="-111.88095"
         sodipodi:type="arc"
         id="path817"
         style="opacity:1;fill:#000000;fill-opacity:1;stroke:#52bb31;stroke-width:8.73125;stroke-linecap:round;stroke-linejoin:miter;stroke-miterlimit:4;stroke-dasharray:none;stroke-dashoffset:0;stroke-opacity:1" />
      <rect
         ry="0"
         rx="24.190479"
         y="137.49403"
         x="-136.07141"
         height="133.80357"
         width="48.380959"
         id="rect819"
         style="opacity:1;fill:#a05a2c;fill-opacity:0.99607843;stroke:none;stroke-width:4.36562538;stroke-linecap:round;stroke-linejoin:miter;stroke-miterlimit:4;stroke-dasharray:none;stroke-dashoffset:0;stroke-opacity:1" />
      <g
         transform="translate(4.7525477)"
         style="fill:#00ff00"
         id="g913">
        <g
           transform="matrix(0.66909093,0,0,0.66909093,-332.61045,-8.622342)"
           style="fill:#52bb31;fill-opacity:1"
           id="g936">
          <g
             id="g884"
             style="fill:#52bb31;fill-opacity:1">
            <g
               id="g827"
               style="fill:#52bb31;fill-opacity:1">
              <path
                 d="m 322.94866,158.66036 a 34.773811,34.773811 0 0 1 -34.93024,-34.573 34.773811,34.773811 0 0 1 34.52932,-34.973414 34.773811,34.773811 0 0 1 35.01654,34.485584 34.773811,34.773811 0 0 1 -34.4418,35.05961"
                 sodipodi:open="true"
                 sodipodi:end="1.5612825"
                 sodipodi:start="1.5662812"
                 sodipodi:ry="34.773811"
                 sodipodi:rx="34.773811"
                 sodipodi:cy="123.8869"
                 sodipodi:cx="322.79166"
                 sodipodi:type="arc"
                 id="path821"
                 style="opacity:1;fill:#52bb31;fill-opacity:1;stroke:none;stroke-width:8.73124981;stroke-linecap:round;stroke-linejoin:miter;stroke-miterlimit:4;stroke-dasharray:none;stroke-dashoffset:0;stroke-opacity:1" />
              <path
                 style="opacity:1;fill:#52bb31;fill-opacity:1;stroke:none;stroke-width:8.73124981;stroke-linecap:round;stroke-linejoin:miter;stroke-miterlimit:4;stroke-dasharray:none;stroke-dashoffset:0;stroke-opacity:1"
                 id="path823"
                 sodipodi:type="arc"
                 sodipodi:cx="322.79166"
                 sodipodi:cy="262.2262"
                 sodipodi:rx="34.773811"
                 sodipodi:ry="34.773811"
                 sodipodi:start="1.5662812"
                 sodipodi:end="1.5612825"
                 sodipodi:open="true"
                 d="m 322.94866,296.99965 a 34.773811,34.773811 0 0 1 -34.93024,-34.57299 34.773811,34.773811 0 0 1 34.52932,-34.97342 34.773811,34.773811 0 0 1 35.01654,34.48558 34.773811,34.773811 0 0 1 -34.4418,35.05961" />
            </g>
            <g
               id="g833"
               style="fill:#52bb31;fill-opacity:1">
              <path
                 style="opacity:1;fill:#52bb31;fill-opacity:1;stroke:none;stroke-width:8.73124981;stroke-linecap:round;stroke-linejoin:miter;stroke-miterlimit:4;stroke-dasharray:none;stroke-dashoffset:0;stroke-opacity:1"
                 id="path829"
                 sodipodi:type="arc"
                 sodipodi:cx="322.79166"
                 sodipodi:cy="123.8869"
                 sodipodi:rx="34.773811"
                 sodipodi:ry="34.773811"
                 sodipodi:start="1.5662812"
                 sodipodi:end="1.5612825"
                 sodipodi:open="true"
                 d="m 322.94866,158.66036 a 34.773811,34.773811 0 0 1 -34.93024,-34.573 34.773811,34.773811 0 0 1 34.52932,-34.973414 34.773811,34.773811 0 0 1 35.01654,34.485584 34.773811,34.773811 0 0 1 -34.4418,35.05961" />
              <path
                 d="m 322.94866,296.99965 a 34.773811,34.773811 0 0 1 -34.93024,-34.57299 34.773811,34.773811 0 0 1 34.52932,-34.97342 34.773811,34.773811 0 0 1 35.01654,34.48558 34.773811,34.773811 0 0 1 -34.4418,35.05961"
                 sodipodi:open="true"
                 sodipodi:end="1.5612825"
                 sodipodi:start="1.5662812"
                 sodipodi:ry="34.773811"
                 sodipodi:rx="34.773811"
                 sodipodi:cy="262.2262"
                 sodipodi:cx="322.79166"
                 sodipodi:type="arc"
                 id="path831"
                 style="opacity:1;fill:#52bb31;fill-opacity:1;stroke:none;stroke-width:8.73124981;stroke-linecap:round;stroke-linejoin:miter;stroke-miterlimit:4;stroke-dasharray:none;stroke-dashoffset:0;stroke-opacity:1" />
            </g>
            <g
               id="g839"
               style="fill:#52bb31;fill-opacity:1">
              <path
                 d="m 322.94866,158.66036 a 34.773811,34.773811 0 0 1 -34.93024,-34.573 34.773811,34.773811 0 0 1 34.52932,-34.973414 34.773811,34.773811 0 0 1 35.01654,34.485584 34.773811,34.773811 0 0 1 -34.4418,35.05961"
                 sodipodi:open="true"
                 sodipodi:end="1.5612825"
                 sodipodi:start="1.5662812"
                 sodipodi:ry="34.773811"
                 sodipodi:rx="34.773811"
                 sodipodi:cy="123.8869"
                 sodipodi:cx="322.79166"
                 sodipodi:type="arc"
                 id="path835"
                 style="opacity:1;fill:#52bb31;fill-opacity:1;stroke:none;stroke-width:8.73124981;stroke-linecap:round;stroke-linejoin:miter;stroke-miterlimit:4;stroke-dasharray:none;stroke-dashoffset:0;stroke-opacity:1" />
              <path
                 style="opacity:1;fill:#52bb31;fill-opacity:1;stroke:none;stroke-width:8.73124981;stroke-linecap:round;stroke-linejoin:miter;stroke-miterlimit:4;stroke-dasharray:none;stroke-dashoffset:0;stroke-opacity:1"
                 id="path837"
                 sodipodi:type="arc"
                 sodipodi:cx="322.79166"
                 sodipodi:cy="262.2262"
                 sodipodi:rx="34.773811"
                 sodipodi:ry="34.773811"
                 sodipodi:start="1.5662812"
                 sodipodi:end="1.5612825"
                 sodipodi:open="true"
                 d="m 322.94866,296.99965 a 34.773811,34.773811 0 0 1 -34.93024,-34.57299 34.773811,34.773811 0 0 1 34.52932,-34.97342 34.773811,34.773811 0 0 1 35.01654,34.48558 34.773811,34.773811 0 0 1 -34.4418,35.05961" />
            </g>
            <g
               id="g845"
               transform="rotate(135,322.87882,193.09194)"
               style="fill:#52bb31;fill-opacity:1">
              <path
                 style="opacity:1;fill:#52bb31;fill-opacity:1;stroke:none;stroke-width:8.73124981;stroke-linecap:round;stroke-linejoin:miter;stroke-miterlimit:4;stroke-dasharray:none;stroke-dashoffset:0;stroke-opacity:1"
                 id="path841"
                 sodipodi:type="arc"
                 sodipodi:cx="322.79166"
                 sodipodi:cy="123.8869"
                 sodipodi:rx="34.773811"
                 sodipodi:ry="34.773811"
                 sodipodi:start="1.5662812"
                 sodipodi:end="1.5612825"
                 sodipodi:open="true"
                 d="m 322.94866,158.66036 a 34.773811,34.773811 0 0 1 -34.93024,-34.573 34.773811,34.773811 0 0 1 34.52932,-34.973414 34.773811,34.773811 0 0 1 35.01654,34.485584 34.773811,34.773811 0 0 1 -34.4418,35.05961" />
              <path
                 d="m 322.94866,296.99965 a 34.773811,34.773811 0 0 1 -34.93024,-34.57299 34.773811,34.773811 0 0 1 34.52932,-34.97342 34.773811,34.773811 0 0 1 35.01654,34.48558 34.773811,34.773811 0 0 1 -34.4418,35.05961"
                 sodipodi:open="true"
                 sodipodi:end="1.5612825"
                 sodipodi:start="1.5662812"
                 sodipodi:ry="34.773811"
                 sodipodi:rx="34.773811"
                 sodipodi:cy="262.2262"
                 sodipodi:cx="322.79166"
                 sodipodi:type="arc"
                 id="path843"
                 style="opacity:1;fill:#52bb31;fill-opacity:1;stroke:none;stroke-width:8.73124981;stroke-linecap:round;stroke-linejoin:miter;stroke-miterlimit:4;stroke-dasharray:none;stroke-dashoffset:0;stroke-opacity:1" />
            </g>
            <g
               id="g851"
               transform="rotate(45,322.79166,193.05655)"
               style="fill:#52bb31;fill-opacity:1">
              <path
                 d="m 322.94866,158.66036 a 34.773811,34.773811 0 0 1 -34.93024,-34.573 34.773811,34.773811 0 0 1 34.52932,-34.973414 34.773811,34.773811 0 0 1 35.01654,34.485584 34.773811,34.773811 0 0 1 -34.4418,35.05961"
                 sodipodi:open="true"
                 sodipodi:end="1.5612825"
                 sodipodi:start="1.5662812"
                 sodipodi:ry="34.773811"
                 sodipodi:rx="34.773811"
                 sodipodi:cy="123.8869"
                 sodipodi:cx="322.79166"
                 sodipodi:type="arc"
                 id="path847"
                 style="opacity:1;fill:#52bb31;fill-opacity:1;stroke:none;stroke-width:8.73124981;stroke-linecap:round;stroke-linejoin:miter;stroke-miterlimit:4;stroke-dasharray:none;stroke-dashoffset:0;stroke-opacity:1" />
              <path
                 style="opacity:1;fill:#52bb31;fill-opacity:1;stroke:none;stroke-width:8.73124981;stroke-linecap:round;stroke-linejoin:miter;stroke-miterlimit:4;stroke-dasharray:none;stroke-dashoffset:0;stroke-opacity:1"
                 id="path849"
                 sodipodi:type="arc"
                 sodipodi:cx="322.79166"
                 sodipodi:cy="262.2262"
                 sodipodi:rx="34.773811"
                 sodipodi:ry="34.773811"
                 sodipodi:start="1.5662812"
                 sodipodi:end="1.5612825"
                 sodipodi:open="true"
                 d="m 322.94866,296.99965 a 34.773811,34.773811 0 0 1 -34.93024,-34.57299 34.773811,34.773811 0 0 1 34.52932,-34.97342 34.773811,34.773811 0 0 1 35.01654,34.48558 34.773811,34.773811 0 0 1 -34.4418,35.05961" />
            </g>
            <g
               id="g857"
               transform="rotate(90,322.79166,193.05655)"
               style="fill:#52bb31;fill-opacity:1">
              <path
                 style="opacity:1;fill:#52bb31;fill-opacity:1;stroke:none;stroke-width:8.73124981;stroke-linecap:round;stroke-linejoin:miter;stroke-miterlimit:4;stroke-dasharray:none;stroke-dashoffset:0;stroke-opacity:1"
                 id="path853"
                 sodipodi:type="arc"
                 sodipodi:cx="322.79166"
                 sodipodi:cy="123.8869"
                 sodipodi:rx="34.773811"
                 sodipodi:ry="34.773811"
                 sodipodi:start="1.5662812"
                 sodipodi:end="1.5612825"
                 sodipodi:open="true"
                 d="m 322.94866,158.66036 a 34.773811,34.773811 0 0 1 -34.93024,-34.573 34.773811,34.773811 0 0 1 34.52932,-34.973414 34.773811,34.773811 0 0 1 35.01654,34.485584 34.773811,34.773811 0 0 1 -34.4418,35.05961" />
              <path
                 d="m 322.94866,296.99965 a 34.773811,34.773811 0 0 1 -34.93024,-34.57299 34.773811,34.773811 0 0 1 34.52932,-34.97342 34.773811,34.773811 0 0 1 35.01654,34.48558 34.773811,34.773811 0 0 1 -34.4418,35.05961"
                 sodipodi:open="true"
                 sodipodi:end="1.5612825"
                 sodipodi:start="1.5662812"
                 sodipodi:ry="34.773811"
                 sodipodi:rx="34.773811"
                 sodipodi:cy="262.2262"
                 sodipodi:cx="322.79166"
                 sodipodi:type="arc"
                 id="path855"
                 style="opacity:1;fill:#52bb31;fill-opacity:1;stroke:none;stroke-width:8.73124981;stroke-linecap:round;stroke-linejoin:miter;stroke-miterlimit:4;stroke-dasharray:none;stroke-dashoffset:0;stroke-opacity:1" />
            </g>
            <path
               style="opacity:1;fill:#52bb31;fill-opacity:1;stroke:none;stroke-width:8.73124981;stroke-linecap:round;stroke-linejoin:miter;stroke-miterlimit:4;stroke-dasharray:none;stroke-dashoffset:0;stroke-opacity:1"
               id="path859"
               sodipodi:type="arc"
               sodipodi:cx="293.6875"
               sodipodi:cy="168.4881"
               sodipodi:rx="11.717261"
               sodipodi:ry="49.892857"
               sodipodi:start="1.5662812"
               sodipodi:end="1.5612825"
               sodipodi:open="true"
               d="m 293.7404,218.38045 a 11.717261,49.892857 0 0 1 -11.76997,-49.60473 11.717261,49.892857 0 0 1 11.63488,-50.17925 11.717261,49.892857 0 0 1 11.79905,49.47931 11.717261,49.892857 0 0 1 -11.60539,50.30292" />
          </g>
          <rect
             rx="97.431343"
             y="119.66748"
             x="249.35559"
             height="126.24405"
             width="126.99998"
             id="rect890"
             style="opacity:1;fill:#52bb31;fill-opacity:1;stroke:none;stroke-width:5.09886837;stroke-linecap:round;stroke-linejoin:miter;stroke-miterlimit:4;stroke-dasharray:none;stroke-dashoffset:0;stroke-opacity:1" />
        </g>
      </g>
      <path
         style="opacity:1;fill:none;fill-opacity:0.99607843;stroke:#52bb31;stroke-width:8.73124981;stroke-linecap:round;stroke-linejoin:miter;stroke-miterlimit:4;stroke-dasharray:none;stroke-dashoffset:0;stroke-opacity:1"
         id="path993"
         sodipodi:type="arc"
         sodipodi:cx="-111.88095"
         sodipodi:cy="147.32143"
         sodipodi:rx="125.48809"
         sodipodi:ry="125.48809"
         sodipodi:start="1.5662812"
         sodipodi:end="1.5612825"
         sodipodi:open="true"
         d="M -111.31436,272.80824 A 125.48809,125.48809 0 0 1 -237.36696,148.04484 125.48809,125.48809 0 0 1 -112.76118,21.836423 125.48809,125.48809 0 0 1 13.602854,146.28439 125.48809,125.48809 0 0 1 -110.6871,272.80384" />
    </g>
  </g>
</svg>
